<svg xmlns="http://www.w3.org/2000/svg" width="980" height="560" viewBox="0 0 980 560">
  <rect width="100%" height="100%" fill="white" />
    <text x="490.0" y="24" text-anchor="middle" font-size="20" font-family="Arial">docarankqwen06b Internal and End-to-End Latency vs Concurrency</text>
  <line x1="510.0" y1="40" x2="510.0" y2="480" stroke="#eeeeee" /><text x="510.0" y="515" text-anchor="middle" font-size="13">1</text><line x1="940.0" y1="40" x2="940.0" y2="480" stroke="#eeeeee" /><text x="940.0" y="515" text-anchor="middle" font-size="13">2</text><line x1="80" y1="480.0" x2="940" y2="480.0" stroke="#eeeeee" /><text x="70" y="484.0" text-anchor="end" font-size="13">0</text><line x1="80" y1="392.0" x2="940" y2="392.0" stroke="#eeeeee" /><text x="70" y="396.0" text-anchor="end" font-size="13">204</text><line x1="80" y1="304.0" x2="940" y2="304.0" stroke="#eeeeee" /><text x="70" y="308.0" text-anchor="end" font-size="13">408</text><line x1="80" y1="216.0" x2="940" y2="216.0" stroke="#eeeeee" /><text x="70" y="220.0" text-anchor="end" font-size="13">612</text><line x1="80" y1="128.0" x2="940" y2="128.0" stroke="#eeeeee" /><text x="70" y="132.0" text-anchor="end" font-size="13">817</text><line x1="80" y1="40.0" x2="940" y2="40.0" stroke="#eeeeee" /><text x="70" y="44.0" text-anchor="end" font-size="13">1021</text>
  <line x1="80" y1="480" x2="940" y2="480" stroke="#333333" />
  <line x1="80" y1="40" x2="80" y2="480" stroke="#333333" />
    <polyline fill="none" stroke="#1f77b4" stroke-width="3" points="510.0,45.0 940.0,40.0" /><polyline fill="none" stroke="#d62728" stroke-width="3" points="510.0,463.7 940.0,464.2" /><polyline fill="none" stroke="#2ca02c" stroke-width="3" points="510.0,479.8 940.0,479.8" /><polyline fill="none" stroke="#9467bd" stroke-width="3" points="510.0,463.8 940.0,464.4" />
  <text x="490.0" y="548" text-anchor="middle" font-size="15" font-family="Arial">Concurrency</text>
  <text x="20" y="280.0" transform="rotate(-90 20,280.0)" text-anchor="middle" font-size="15" font-family="Arial">Latency ms</text>
    <rect x="720" y="50" width="220" height="105" fill="white" stroke="#dddddd" />
    <line x1="735" y1="70" x2="770" y2="70" stroke="#1f77b4" stroke-width="3" /><text x="780" y="75" font-size="14" font-family="Arial">end2end p95</text><line x1="735" y1="92" x2="770" y2="92" stroke="#d62728" stroke-width="3" /><text x="780" y="97" font-size="14" font-family="Arial">latency_ms p95</text><line x1="735" y1="114" x2="770" y2="114" stroke="#2ca02c" stroke-width="3" /><text x="780" y="119" font-size="14" font-family="Arial">prompt_build_ms p95</text><line x1="735" y1="136" x2="770" y2="136" stroke="#9467bd" stroke-width="3" /><text x="780" y="141" font-size="14" font-family="Arial">inference_ms p95</text>
</svg>
