<svg xmlns="http://www.w3.org/2000/svg" width="900" height="520" viewBox="0 0 900 520">
  <rect width="100%" height="100%" fill="white" />
  <text x="450.0" y="24" text-anchor="middle" font-size="20" font-family="Arial">docarankqwen06b Latency vs Concurrency</text>
  <line x1="92.2" y1="40" x2="92.2" y2="440" stroke="#eeeeee" /><text x="92.2" y="475" text-anchor="middle" font-size="13">1</text><line x1="104.4" y1="40" x2="104.4" y2="440" stroke="#eeeeee" /><text x="104.4" y="475" text-anchor="middle" font-size="13">2</text><line x1="128.8" y1="40" x2="128.8" y2="440" stroke="#eeeeee" /><text x="128.8" y="475" text-anchor="middle" font-size="13">4</text><line x1="177.5" y1="40" x2="177.5" y2="440" stroke="#eeeeee" /><text x="177.5" y="475" text-anchor="middle" font-size="13">8</text><line x1="275.0" y1="40" x2="275.0" y2="440" stroke="#eeeeee" /><text x="275.0" y="475" text-anchor="middle" font-size="13">16</text><line x1="470.0" y1="40" x2="470.0" y2="440" stroke="#eeeeee" /><text x="470.0" y="475" text-anchor="middle" font-size="13">32</text><line x1="860.0" y1="40" x2="860.0" y2="440" stroke="#eeeeee" /><text x="860.0" y="475" text-anchor="middle" font-size="13">64</text><line x1="80" y1="440.0" x2="860" y2="440.0" stroke="#eeeeee" /><text x="70" y="444.0" text-anchor="end" font-size="13">0</text><line x1="80" y1="360.0" x2="860" y2="360.0" stroke="#eeeeee" /><text x="70" y="364.0" text-anchor="end" font-size="13">449</text><line x1="80" y1="280.0" x2="860" y2="280.0" stroke="#eeeeee" /><text x="70" y="284.0" text-anchor="end" font-size="13">899</text><line x1="80" y1="200.0" x2="860" y2="200.0" stroke="#eeeeee" /><text x="70" y="204.0" text-anchor="end" font-size="13">1348</text><line x1="80" y1="120.0" x2="860" y2="120.0" stroke="#eeeeee" /><text x="70" y="124.0" text-anchor="end" font-size="13">1797</text><line x1="80" y1="40.0" x2="860" y2="40.0" stroke="#eeeeee" /><text x="70" y="44.0" text-anchor="end" font-size="13">2247</text>
  <line x1="80" y1="440" x2="860" y2="440" stroke="#333333" />
  <line x1="80" y1="40" x2="80" y2="440" stroke="#333333" />
  <polyline fill="none" stroke="#1f77b4" stroke-width="3" points="92.2,264.5 104.4,263.6 128.8,260.9 177.5,249.9 275.0,216.1 470.0,101.7 860.0,118.1" />
  <polyline fill="none" stroke="#d62728" stroke-width="3" points="92.2,239.5 104.4,253.9 128.8,237.9 177.5,205.7 275.0,131.4 470.0,41.7 860.0,40.0" />
  <text x="450.0" y="508" text-anchor="middle" font-size="15" font-family="Arial">Concurrency</text>
  <text x="20" y="260.0" transform="rotate(-90 20,260.0)" text-anchor="middle" font-size="15" font-family="Arial">Latency ms</text>
  <rect x="690" y="50" width="150" height="54" fill="white" stroke="#dddddd" />
  <line x1="705" y1="70" x2="740" y2="70" stroke="#1f77b4" stroke-width="3" />
  <text x="750" y="75" font-size="14" font-family="Arial">avg latency</text>
  <line x1="705" y1="92" x2="740" y2="92" stroke="#d62728" stroke-width="3" />
  <text x="750" y="97" font-size="14" font-family="Arial">p95 latency</text>
</svg>
