<svg xmlns="http://www.w3.org/2000/svg" width="900" height="520" viewBox="0 0 900 520">
  <rect width="100%" height="100%" fill="white" />
  <text x="450.0" y="24" text-anchor="middle" font-size="20" font-family="Arial">docarankqwen06b Latency vs Concurrency</text>
  <line x1="470.0" y1="40" x2="470.0" y2="440" stroke="#eeeeee" /><text x="470.0" y="475" text-anchor="middle" font-size="13">1</text><line x1="860.0" y1="40" x2="860.0" y2="440" stroke="#eeeeee" /><text x="860.0" y="475" text-anchor="middle" font-size="13">2</text><line x1="80" y1="440.0" x2="860" y2="440.0" stroke="#eeeeee" /><text x="70" y="444.0" text-anchor="end" font-size="13">0</text><line x1="80" y1="360.0" x2="860" y2="360.0" stroke="#eeeeee" /><text x="70" y="364.0" text-anchor="end" font-size="13">206</text><line x1="80" y1="280.0" x2="860" y2="280.0" stroke="#eeeeee" /><text x="70" y="284.0" text-anchor="end" font-size="13">412</text><line x1="80" y1="200.0" x2="860" y2="200.0" stroke="#eeeeee" /><text x="70" y="204.0" text-anchor="end" font-size="13">618</text><line x1="80" y1="120.0" x2="860" y2="120.0" stroke="#eeeeee" /><text x="70" y="124.0" text-anchor="end" font-size="13">825</text><line x1="80" y1="40.0" x2="860" y2="40.0" stroke="#eeeeee" /><text x="70" y="44.0" text-anchor="end" font-size="13">1031</text>
  <line x1="80" y1="440" x2="860" y2="440" stroke="#333333" />
  <line x1="80" y1="40" x2="80" y2="440" stroke="#333333" />
  <polyline fill="none" stroke="#1f77b4" stroke-width="3" points="470.0,64.8 860.0,56.0" />
  <polyline fill="none" stroke="#d62728" stroke-width="3" points="470.0,49.3 860.0,40.0" />
  <text x="450.0" y="508" text-anchor="middle" font-size="15" font-family="Arial">Concurrency</text>
  <text x="20" y="260.0" transform="rotate(-90 20,260.0)" text-anchor="middle" font-size="15" font-family="Arial">Latency ms</text>
  <rect x="690" y="50" width="150" height="54" fill="white" stroke="#dddddd" />
  <line x1="705" y1="70" x2="740" y2="70" stroke="#1f77b4" stroke-width="3" />
  <text x="750" y="75" font-size="14" font-family="Arial">avg latency</text>
  <line x1="705" y1="92" x2="740" y2="92" stroke="#d62728" stroke-width="3" />
  <text x="750" y="97" font-size="14" font-family="Arial">p95 latency</text>
</svg>
